<?xml version="1.0" encoding="utf-8"?>
<!-- Generator: Adobe Illustrator 21.1.0, SVG Export Plug-In . SVG Version: 6.00 Build 0)  -->
<svg version="1.1" id="Layer_1" xmlns="http://www.w3.org/2000/svg" xmlns:xlink="http://www.w3.org/1999/xlink" x="0px" y="0px"
	 viewBox="0 0 200 200" style="enable-background:new 0 0 200 200;" xml:space="preserve">
<style type="text/css">
	.st0{clip-path:url(#SVGID_2_);fill:#FF0000;}
</style>
<g>
	<g>
		<g>
			<defs>
				<polyline id="SVGID_1_" points="0,0 0,200 200,200 200,0 0,0 				"/>
			</defs>
			<clipPath id="SVGID_2_">
				<use xlink:href="#SVGID_1_"  style="overflow:visible;"/>
			</clipPath>
			<path class="st0" d="M61.5,175.2c-1.6-7.7-1-15.8,2.1-23.1L22,110.5c-5.8-5.8-5.6-15.4,0.2-21.1c5.8-5.8,15.5-5.8,21.2,0
				L54.1,100l-16,16l12.7,12.7l44.8-44.8L82.9,71.2l-16,16L56.4,76.7l-0.1-0.1c-12.9-12.9-33.8-12.9-46.6,0
				c-12.9,12.9-13,33.8-0.1,46.7L61.5,175.2 M175.2,138.5c-7.7,1.6-15.8,1-23.1-2L110.5,178c-5.8,5.8-15.4,5.6-21.1-0.2
				c-5.8-5.8-5.8-15.4,0-21.2l10.7-10.7l16,16l12.7-12.7L84,104.4l-12.7,12.7l16,16l-10.6,10.6c-12.9,12.9-12.9,33.7,0,46.6
				c12.9,12.9,33.8,13,46.7,0.1L175.2,138.5 M138.5,24.9c1.6,7.7,1,15.7-2,23.1L178,89.5c5.8,5.8,5.6,15.3-0.2,21.1
				c-5.8,5.8-15.4,5.8-21.2,0L145.9,100l16-16l-12.7-12.7l-44.8,44.8l12.7,12.7l16-16l10.5,10.5l0.1,0.1c12.9,12.9,33.8,12.9,46.6,0
				s13-33.8,0.1-46.7L138.5,24.9 M24.8,61.5c7.7-1.7,15.7-1,23.1,2L89.4,22c5.8-5.8,15.4-5.6,21.1,0.2c5.8,5.8,5.8,15.4,0,21.2
				L99.9,54.1l-16-16L71.3,50.8L116,95.5l12.7-12.7l-16-16l10.5-10.5l0.1-0.1c12.9-12.9,12.9-33.8,0-46.6
				c-12.9-12.9-33.8-13-46.7-0.1L24.8,61.5"/>
		</g>
	</g>
</g>
</svg>
